<svg xmlns="http://www.w3.org/2000/svg" width="551" height="554" viewBox="0 0 551 554" version="1.1"><path d="M 271.703 134.597 C 267.098 137.093, 242.379 146.480, 229 150.812 C 215.940 155.040, 186.518 162.840, 174.500 165.258 L 167.500 166.667 167.500 202.584 L 167.500 238.500 172.750 238.802 L 178 239.105 178 207.052 C 178 176.094, 178.066 175, 179.923 175 C 182.554 175, 215.763 166.618, 227.202 163.068 C 238.513 159.556, 259.090 152.223, 268.196 148.458 L 274.891 145.690 290.696 151.748 C 311.202 159.608, 328.992 165.170, 352.500 171.070 L 371.500 175.839 371.764 207.420 L 372.028 239 377.514 239 L 383 239 383 203.019 L 383 167.038 380.250 166.417 C 341.704 157.715, 305.243 146.385, 282.275 135.970 C 274.725 132.547, 275.336 132.627, 271.703 134.597 M 269 170.572 C 265.975 173.012, 260.575 176.531, 257 178.393 C 249.912 182.084, 236.041 186.992, 232.636 187.014 C 231.461 187.021, 229.480 187.301, 228.233 187.635 L 225.966 188.242 226.233 213.371 L 226.500 238.500 249.500 238.817 C 262.150 238.992, 283.863 238.829, 297.750 238.454 L 323 237.774 323 212.948 L 323 188.123 318.250 187.430 C 305.549 185.579, 291.600 179.385, 281.128 170.946 C 277.752 168.226, 274.880 166.031, 274.745 166.068 C 274.610 166.106, 272.025 168.133, 269 170.572 M 280 201.690 C 280 225.148, 280.512 227.215, 286.752 228.948 C 288.813 229.520, 296.238 229.991, 303.250 229.994 L 316 230 316 212.709 L 316 195.417 308.750 193.752 C 304.762 192.837, 296.663 189.656, 290.750 186.684 L 280 181.280 280 201.690 M 260.500 186.676 C 253.125 190.627, 244.538 193.932, 237.750 195.431 L 235 196.038 235 212.986 L 235 229.935 248.250 229.404 C 265.008 228.732, 265.645 228.586, 267.503 224.995 C 268.766 222.552, 268.993 218.470, 268.771 202.205 L 268.500 182.390 260.500 186.676 M 111.960 256.250 C 109.992 260.688, 89.931 310.521, 89.718 311.500 C 89.594 312.069, 91.808 312.500, 94.860 312.500 L 100.221 312.500 102.458 306.500 L 104.695 300.500 117.370 300.220 L 130.045 299.940 132.021 304.720 C 135.190 312.385, 135.289 312.476, 140.853 312.802 C 143.684 312.969, 146 312.749, 146 312.315 C 146 311.880, 140.751 298.582, 134.335 282.762 L 122.670 254 117.814 254 C 113.739 254, 112.796 254.362, 111.960 256.250 M 148.942 255.250 C 148.450 265.886, 149.359 296.399, 150.259 299.431 C 153.049 308.837, 164.131 314.965, 175.856 313.587 C 185.749 312.424, 192.534 306.937, 194.984 298.118 C 195.537 296.128, 195.991 285.387, 195.994 274.250 L 196 254 191 254 L 186 254 186 270.364 C 186 290.438, 185.003 296.455, 181.018 300.442 C 178.548 302.913, 177.277 303.385, 173.082 303.385 C 166.581 303.385, 163.479 301.621, 161.010 296.521 C 159.211 292.804, 159 290.357, 159 273.184 L 159 254 154 254 C 150.698 254, 148.980 254.424, 148.942 255.250 M 205.667 254.667 C 205.300 255.033, 205 268.075, 205 283.648 L 205 311.962 207.607 312.616 C 209.042 312.976, 215.679 312.962, 222.357 312.584 C 232.707 311.999, 235.402 311.479, 240.609 309.067 C 249.883 304.771, 254.563 297.485, 255.671 285.617 C 257.138 269.908, 248.658 258.399, 233.201 255.123 C 227.493 253.913, 206.764 253.570, 205.667 254.667 M 263 282.892 L 263 311.783 265.500 312.411 C 266.875 312.756, 269.125 312.756, 270.500 312.411 L 273 311.783 273 282.892 L 273 254 268 254 L 263 254 263 282.892 M 279.398 255.405 C 279.102 256.177, 279.003 258.315, 279.180 260.155 L 279.500 263.500 287.500 263.627 L 295.500 263.755 296 288.130 C 296.427 308.967, 296.718 312.490, 298 312.404 C 298.825 312.350, 300.962 312.236, 302.750 312.152 L 306 312 306 288 L 306 264 313.500 264 L 321 264 321 259 L 321 254 300.469 254 C 283.759 254, 279.837 254.262, 279.398 255.405 M 327 283.372 L 327 313 332 313 L 337 313 337 301 L 337 289 341.281 289 L 345.562 289 350.870 300.407 C 356.335 312.150, 357.131 312.975, 363 312.971 C 368.677 312.967, 368.607 311.886, 362.144 299.769 L 356.033 288.314 359.722 285.907 C 370.313 278.998, 369.938 263.023, 359.045 257.062 C 355.087 254.896, 353.053 254.575, 340.795 254.184 L 327 253.744 327 283.372 M 376 283 L 376 312 378.250 312.089 C 379.943 312.156, 399.009 312.109, 412.250 312.006 C 412.663 312.003, 413 309.975, 413 307.500 L 413 303 399.500 303 L 386 303 386 295.500 L 386 288 397.399 288 L 408.799 288 409.162 283.429 C 409.362 280.916, 409.332 278.666, 409.096 278.429 C 408.860 278.193, 403.567 278, 397.333 278 L 386 278 386 271.030 L 386 264.060 398.750 263.780 L 411.500 263.500 411.805 258.750 L 412.110 254 394.055 254 L 376 254 376 283 M 419 254.807 C 419 255.250, 422.792 261.586, 427.427 268.885 L 435.854 282.157 430.277 290.828 C 427.209 295.598, 422.967 302.063, 420.850 305.195 C 418.732 308.327, 417 311.365, 417 311.945 C 417 312.556, 419.291 313, 422.437 313 L 427.875 313 434.687 302.046 C 438.434 296.021, 441.725 291.078, 442 291.062 C 442.275 291.046, 444.949 295.188, 447.942 300.267 C 455.538 313.155, 455.371 313, 461.762 313 C 466.067 313, 467.099 312.701, 466.668 311.576 C 466.367 310.793, 462.269 304.014, 457.561 296.510 C 452.852 289.007, 449 282.481, 449 282.009 C 449 281.537, 452.417 275.645, 456.592 268.916 C 460.768 262.187, 464.416 256.078, 464.699 255.341 C 465.091 254.321, 463.909 254, 459.755 254 L 454.297 254 448.398 263.510 C 441.631 274.421, 442.871 274.594, 434.724 261.611 L 429.947 254 424.474 254 C 421.463 254, 419 254.363, 419 254.807 M 337.750 263.561 C 337.337 263.986, 337 267.858, 337 272.167 L 337 280 344.545 280 C 351.223 280, 352.373 279.718, 354.545 277.545 C 357.857 274.234, 357.858 269.155, 354.547 266.044 C 352.633 264.246, 350.600 263.635, 345.297 263.264 C 341.559 263.003, 338.163 263.137, 337.750 263.561 M 216 283.500 L 216 303 222.750 302.978 C 236.465 302.933, 244.696 295.665, 244.924 283.399 C 245.155 270.946, 237.459 264.065, 223.250 264.022 L 216 264 216 283.500 M 115.881 270.750 C 112.458 279.555, 109 289.263, 109 290.068 C 109 290.581, 112.825 291, 117.500 291 C 122.217 291, 126 290.576, 126 290.048 C 126 288.671, 117.938 268, 117.401 268 C 117.153 268, 116.469 269.238, 115.881 270.750 M 226 334.395 C 226 351.402, 232.329 362.983, 248.192 375 C 252.972 378.621, 260.936 383.721, 265.888 386.332 L 274.892 391.079 282.196 387.401 C 301.413 377.724, 314.727 365.650, 320.451 352.708 C 322.988 346.969, 325.756 330.412, 324.656 327.547 C 324.132 326.180, 318.348 326, 275.031 326 L 226 326 226 334.395 M 167.317 332.760 C 168.686 345.854, 173.594 353.752, 191.426 371.550 C 212.305 392.390, 226.328 402.155, 258.683 418.384 C 267.034 422.573, 274.771 426, 275.878 426 C 278.718 426, 308.546 410.657, 320.500 403.047 C 334.749 393.977, 348.137 383.483, 358.238 373.469 C 374.437 357.409, 381.331 346.058, 382.360 333.750 L 382.925 327 377.579 327 C 371.735 327, 371.044 327.800, 371.014 334.590 C 370.992 339.489, 365.674 348.804, 357.781 357.770 C 342.493 375.135, 319.183 392.189, 291.732 406.093 L 275.965 414.080 267.732 410.221 C 236.594 395.627, 208.205 375.504, 191.239 355.997 C 182.658 346.132, 179.736 340.505, 179.177 332.764 L 178.760 327 172.737 327 L 166.715 327 167.317 332.760 M 235.205 340.295 C 235.998 352.648, 241.454 359.923, 259.180 372.262 C 264.504 375.968, 269.180 379, 269.571 379 C 270.683 379, 268.963 339.914, 267.768 338 C 265.396 334.203, 262.762 333.538, 248.612 333.167 L 234.724 332.802 235.205 340.295 M 286.388 333.980 C 285.227 334.449, 283.314 336.057, 282.138 337.552 C 280.121 340.116, 280 341.367, 280 359.635 C 280 370.286, 280.249 379, 280.552 379 C 280.856 379, 284.794 376.570, 289.302 373.599 C 305.003 363.254, 314.690 350.514, 315.751 338.813 L 316.278 333 302.389 333.063 C 294.750 333.098, 287.550 333.511, 286.388 333.980" stroke="none" fill="#eee9f2" fill-rule="evenodd"/><path d="M 266.500 136 C 263.200 137.566, 260.950 138.859, 261.500 138.874 C 262.050 138.889, 265.200 137.612, 268.500 136.037 C 271.800 134.461, 274.050 133.167, 273.500 133.162 C 272.950 133.157, 269.800 134.434, 266.500 136 M 280 135 C 281.925 136.054, 283.950 136.916, 284.500 136.916 C 285.050 136.916, 283.925 136.054, 282 135 C 280.075 133.946, 278.050 133.084, 277.500 133.084 C 276.950 133.084, 278.075 133.946, 280 135 M 289 138.831 C 289.825 139.341, 291.625 140.059, 293 140.427 C 294.737 140.892, 295.042 140.813, 294 140.169 C 293.175 139.659, 291.375 138.941, 290 138.573 C 288.263 138.108, 287.958 138.187, 289 138.831 M 299.504 142.853 C 301.706 143.874, 304.631 145, 306.004 145.356 C 307.377 145.712, 306.698 145.168, 304.496 144.147 C 302.294 143.126, 299.369 142, 297.996 141.644 C 296.623 141.288, 297.302 141.832, 299.504 142.853 M 239.688 146.183 C 236.491 147.297, 234.050 148.383, 234.264 148.597 C 234.719 149.052, 247 145.012, 247 144.408 C 247 143.756, 245.859 144.033, 239.688 146.183 M 269.030 148.072 C 263.037 150.790, 238.738 159.507, 227.202 163.077 C 215.693 166.638, 182.536 175, 179.923 175 C 178.066 175, 178 176.094, 178 207.052 L 178 239.105 172.750 238.802 L 167.500 238.500 167.500 202.345 C 167.500 182.460, 167.162 166.399, 166.750 166.654 C 166.338 166.909, 166 183.062, 166 202.549 L 166 237.981 117.750 238.240 L 69.500 238.500 69.240 282.750 L 68.979 327 117.355 327 L 165.731 327 166.236 333.750 C 166.514 337.462, 167.570 342.300, 168.583 344.500 C 176.417 361.506, 203.865 387.943, 230.250 403.896 C 236.677 407.782, 234.352 405.461, 227.250 400.901 C 214.129 392.477, 204.353 384.469, 191.426 371.558 C 173.590 353.745, 168.685 345.851, 167.317 332.760 L 166.715 327 172.737 327 L 178.760 327 179.177 332.764 C 179.736 340.505, 182.658 346.132, 191.239 355.997 C 208.205 375.504, 236.594 395.627, 267.732 410.221 L 275.965 414.080 291.732 406.093 C 319.183 392.189, 342.493 375.135, 357.781 357.770 C 365.674 348.804, 370.992 339.489, 371.014 334.590 C 371.044 327.800, 371.735 327, 377.579 327 L 382.925 327 382.360 333.750 C 381.331 346.058, 374.437 357.409, 358.238 373.469 C 348.862 382.765, 334.663 394.073, 323.750 400.935 C 320.038 403.269, 317 405.391, 317 405.649 C 317 406.246, 317.799 405.771, 327.500 399.406 C 347.391 386.356, 367.753 367.186, 377.122 352.690 C 381.401 346.070, 382.553 342.598, 383.575 333.250 L 384.258 327 433.629 327 L 483 327 483 282.500 L 483 238 433.500 238 L 384 238 384 202.535 C 384 162.513, 384.659 165.594, 375.875 164.538 C 372.231 164.099, 372.001 164.160, 374.500 164.902 C 376.150 165.392, 378.738 166.073, 380.250 166.415 L 383 167.038 383 203.019 L 383 239 377.514 239 L 372.028 239 371.764 207.435 L 371.500 175.870 350.500 170.516 C 326.151 164.309, 309.411 159.043, 289.820 151.430 C 282.135 148.443, 275.319 146.010, 274.673 146.022 C 274.028 146.034, 271.488 146.956, 269.030 148.072 M 221 152.500 C 219.075 153.241, 218.175 153.848, 219 153.848 C 219.825 153.848, 222.075 153.241, 224 152.500 C 225.925 151.759, 226.825 151.152, 226 151.152 C 225.175 151.152, 222.925 151.759, 221 152.500 M 327 152.500 C 328.925 153.241, 331.175 153.848, 332 153.848 C 332.825 153.848, 331.925 153.241, 330 152.500 C 328.075 151.759, 325.825 151.152, 325 151.152 C 324.175 151.152, 325.075 151.759, 327 152.500 M 212.500 155 C 211.239 155.542, 211.055 155.859, 212 155.859 C 212.825 155.859, 214.400 155.473, 215.500 155 C 216.761 154.458, 216.945 154.141, 216 154.141 C 215.175 154.141, 213.600 154.527, 212.500 155 M 335.500 155 C 336.600 155.473, 338.175 155.859, 339 155.859 C 339.945 155.859, 339.761 155.542, 338.500 155 C 337.400 154.527, 335.825 154.141, 335 154.141 C 334.055 154.141, 334.239 154.458, 335.500 155 M 191.500 160.472 C 186.130 162.242, 188.244 162.311, 194.500 160.570 C 197.250 159.805, 198.600 159.173, 197.500 159.166 C 196.400 159.159, 193.700 159.747, 191.500 160.472 M 361.500 161.874 C 362.600 162.337, 365.300 162.997, 367.500 163.341 C 370.039 163.739, 370.769 163.660, 369.500 163.126 C 368.400 162.663, 365.700 162.003, 363.500 161.659 C 360.961 161.261, 360.231 161.340, 361.500 161.874 M 171 165 L 168.500 165.801 171 165.801 C 172.375 165.801, 174.625 165.440, 176 165 L 178.500 164.199 176 164.199 C 174.625 164.199, 172.375 164.560, 171 165 M 269 170.572 C 265.975 173.012, 260.575 176.531, 257 178.393 C 249.912 182.084, 236.041 186.992, 232.636 187.014 C 231.461 187.021, 229.480 187.301, 228.233 187.635 L 225.966 188.242 226.233 213.371 L 226.500 238.500 249.500 238.817 C 262.150 238.992, 283.863 238.829, 297.750 238.454 L 323 237.774 323 212.948 L 323 188.123 318.250 187.430 C 305.549 185.579, 291.600 179.385, 281.128 170.946 C 277.752 168.226, 274.880 166.031, 274.745 166.068 C 274.610 166.106, 272.025 168.133, 269 170.572 M 280 201.690 C 280 225.148, 280.512 227.215, 286.752 228.948 C 288.813 229.520, 296.238 229.991, 303.250 229.994 L 316 230 316 212.709 L 316 195.417 308.750 193.752 C 304.762 192.837, 296.663 189.656, 290.750 186.684 L 280 181.280 280 201.690 M 260.500 186.676 C 253.125 190.627, 244.538 193.932, 237.750 195.431 L 235 196.038 235 212.986 L 235 229.935 248.250 229.404 C 265.008 228.732, 265.645 228.586, 267.503 224.995 C 268.766 222.552, 268.993 218.470, 268.771 202.205 L 268.500 182.390 260.500 186.676 M 111.960 256.250 C 109.992 260.688, 89.931 310.521, 89.718 311.500 C 89.594 312.069, 91.808 312.500, 94.860 312.500 L 100.221 312.500 102.458 306.500 L 104.695 300.500 117.370 300.220 L 130.045 299.940 132.021 304.720 C 135.190 312.385, 135.289 312.476, 140.853 312.802 C 143.684 312.969, 146 312.749, 146 312.315 C 146 311.880, 140.751 298.582, 134.335 282.762 L 122.670 254 117.814 254 C 113.739 254, 112.796 254.362, 111.960 256.250 M 148.942 255.250 C 148.450 265.886, 149.359 296.399, 150.259 299.431 C 153.049 308.837, 164.131 314.965, 175.856 313.587 C 185.749 312.424, 192.534 306.937, 194.984 298.118 C 195.537 296.128, 195.991 285.387, 195.994 274.250 L 196 254 191 254 L 186 254 186 270.364 C 186 290.438, 185.003 296.455, 181.018 300.442 C 178.548 302.913, 177.277 303.385, 173.082 303.385 C 166.581 303.385, 163.479 301.621, 161.010 296.521 C 159.211 292.804, 159 290.357, 159 273.184 L 159 254 154 254 C 150.698 254, 148.980 254.424, 148.942 255.250 M 205.667 254.667 C 205.300 255.033, 205 268.075, 205 283.648 L 205 311.962 207.607 312.616 C 209.042 312.976, 215.679 312.962, 222.357 312.584 C 232.707 311.999, 235.402 311.479, 240.609 309.067 C 249.883 304.771, 254.563 297.485, 255.671 285.617 C 257.138 269.908, 248.658 258.399, 233.201 255.123 C 227.493 253.913, 206.764 253.570, 205.667 254.667 M 263 282.892 L 263 311.783 265.500 312.411 C 266.875 312.756, 269.125 312.756, 270.500 312.411 L 273 311.783 273 282.892 L 273 254 268 254 L 263 254 263 282.892 M 279.398 255.405 C 279.102 256.177, 279.003 258.315, 279.180 260.155 L 279.500 263.500 287.500 263.627 L 295.500 263.755 296 288.130 C 296.427 308.967, 296.718 312.490, 298 312.404 C 298.825 312.350, 300.962 312.236, 302.750 312.152 L 306 312 306 288 L 306 264 313.500 264 L 321 264 321 259 L 321 254 300.469 254 C 283.759 254, 279.837 254.262, 279.398 255.405 M 327 283.372 L 327 313 332 313 L 337 313 337 301 L 337 289 341.281 289 L 345.562 289 350.870 300.407 C 356.335 312.150, 357.131 312.975, 363 312.971 C 368.677 312.967, 368.607 311.886, 362.144 299.769 L 356.033 288.314 359.722 285.907 C 370.313 278.998, 369.938 263.023, 359.045 257.062 C 355.087 254.896, 353.053 254.575, 340.795 254.184 L 327 253.744 327 283.372 M 376 283 L 376 312 378.250 312.089 C 379.943 312.156, 399.009 312.109, 412.250 312.006 C 412.663 312.003, 413 309.975, 413 307.500 L 413 303 399.500 303 L 386 303 386 295.500 L 386 288 397.399 288 L 408.799 288 409.162 283.429 C 409.362 280.916, 409.332 278.666, 409.096 278.429 C 408.860 278.193, 403.567 278, 397.333 278 L 386 278 386 271.030 L 386 264.060 398.750 263.780 L 411.500 263.500 411.805 258.750 L 412.110 254 394.055 254 L 376 254 376 283 M 419 254.807 C 419 255.250, 422.792 261.586, 427.427 268.885 L 435.854 282.157 430.277 290.828 C 427.209 295.598, 422.967 302.063, 420.850 305.195 C 418.732 308.327, 417 311.365, 417 311.945 C 417 312.556, 419.291 313, 422.437 313 L 427.875 313 434.687 302.046 C 438.434 296.021, 441.725 291.078, 442 291.062 C 442.275 291.046, 444.949 295.188, 447.942 300.267 C 455.538 313.155, 455.371 313, 461.762 313 C 466.067 313, 467.099 312.701, 466.668 311.576 C 466.367 310.793, 462.269 304.014, 457.561 296.510 C 452.852 289.007, 449 282.481, 449 282.009 C 449 281.537, 452.417 275.645, 456.592 268.916 C 460.768 262.187, 464.416 256.078, 464.699 255.341 C 465.091 254.321, 463.909 254, 459.755 254 L 454.297 254 448.398 263.510 C 441.631 274.421, 442.871 274.594, 434.724 261.611 L 429.947 254 424.474 254 C 421.463 254, 419 254.363, 419 254.807 M 337.750 263.561 C 337.337 263.986, 337 267.858, 337 272.167 L 337 280 344.545 280 C 351.223 280, 352.373 279.718, 354.545 277.545 C 357.857 274.234, 357.858 269.155, 354.547 266.044 C 352.633 264.246, 350.600 263.635, 345.297 263.264 C 341.559 263.003, 338.163 263.137, 337.750 263.561 M 216 283.500 L 216 303 222.750 302.978 C 236.465 302.933, 244.696 295.665, 244.924 283.399 C 245.155 270.946, 237.459 264.065, 223.250 264.022 L 216 264 216 283.500 M 115.881 270.750 C 112.458 279.555, 109 289.263, 109 290.068 C 109 290.581, 112.825 291, 117.500 291 C 122.217 291, 126 290.576, 126 290.048 C 126 288.671, 117.938 268, 117.401 268 C 117.153 268, 116.469 269.238, 115.881 270.750 M 226 334.395 C 226 351.402, 232.329 362.983, 248.192 375 C 252.972 378.621, 260.936 383.721, 265.888 386.332 L 274.892 391.079 282.196 387.401 C 301.413 377.724, 314.727 365.650, 320.451 352.708 C 322.988 346.969, 325.756 330.412, 324.656 327.547 C 324.132 326.180, 318.348 326, 275.031 326 L 226 326 226 334.395 M 235.205 340.295 C 235.998 352.648, 241.454 359.923, 259.180 372.262 C 264.504 375.968, 269.180 379, 269.571 379 C 270.683 379, 268.963 339.914, 267.768 338 C 265.396 334.203, 262.762 333.538, 248.612 333.167 L 234.724 332.802 235.205 340.295 M 286.388 333.980 C 285.227 334.449, 283.314 336.057, 282.138 337.552 C 280.121 340.116, 280 341.367, 280 359.635 C 280 370.286, 280.249 379, 280.552 379 C 280.856 379, 284.794 376.570, 289.302 373.599 C 305.003 363.254, 314.690 350.514, 315.751 338.813 L 316.278 333 302.389 333.063 C 294.750 333.098, 287.550 333.511, 286.388 333.980 M 235 406.449 C 235 406.724, 236.350 407.647, 238 408.500 C 239.650 409.353, 241 409.826, 241 409.551 C 241 409.276, 239.650 408.353, 238 407.500 C 236.350 406.647, 235 406.174, 235 406.449 M 307.309 410.787 C 302.804 413.352, 299.283 415.616, 299.484 415.817 C 299.898 416.231, 311.448 409.895, 314.500 407.581 C 317.880 405.017, 315.854 405.920, 307.309 410.787 M 242 410.482 C 242 410.757, 246.500 413.240, 252 416 C 257.500 418.760, 262 420.793, 262 420.518 C 262 420.243, 257.500 417.760, 252 415 C 246.500 412.240, 242 410.207, 242 410.482 M 292 419 C 290.075 420.054, 288.860 420.935, 289.300 420.958 C 290.359 421.014, 296 418.081, 296 417.474 C 296 416.820, 295.941 416.842, 292 419 M 267 423.500 C 269.475 424.825, 271.950 425.910, 272.500 425.910 C 273.050 425.910, 271.475 424.825, 269 423.500 C 266.525 422.175, 264.050 421.090, 263.500 421.090 C 262.950 421.090, 264.525 422.175, 267 423.500" stroke="none" fill="#442b68" fill-rule="evenodd"/></svg>